# xmcd CD database file
#
# Track frame offsets:
#	150
#	23935
#	52662
#	67320
#	87352
#	115282
#	152875
#	213762
#	237852
#
# Disc length: 3474 seconds
#
# Revision: 0
# Processed by: cddbd v1.4PL0 Copyright (c) Steve Scherf et al.
# Submitted via: CDex 1.50beta10
#
DISCID=740d9009
DTITLE=Townhall - Live at the Point (Set 2)
DYEAR=2002
DGENRE=Blues
TTITLE0=Confusion
TTITLE1=These Days
TTITLE2=Devil Girls
TTITLE3=Mama
TTITLE4=No Reason
TTITLE5=Losin My Mind
TTITLE6=Half Past Gone
TTITLE7=Looking Up
TTITLE8=Should Have Known
EXTD=YEAR: 2002
EXTT0=
EXTT1=
EXTT2=
EXTT3=
EXTT4=
EXTT5=
EXTT6=
EXTT7=
EXTT8=
PLAYORDER=
